<?xml version="1.0" encoding="UTF-8"?>
<svg width="151.86" height="141.33" fill="none" version="1.1" viewBox="0 0 151.86 141.33" xmlns="http://www.w3.org/2000/svg">
 <g transform="translate(-443.38)" clip-path="url(#clip0_256_828)" fill="url(#paint0_linear_256_828)">
  <path d="m443.38 37.005v67.319c0 20.437 17.102 37.005 38.199 37.005h0.025c21.096 0 37.704-16.777 37.704-37.215l0.494-33.45v-33.66c0-20.437-17.102-37.005-38.198-37.005h-0.025c-21.097 0-38.199 16.568-38.199 37.005z"/>
  <path d="m519.31 104.09 1e-3 0.024c0 20.438 16.607 37.005 37.703 37.005h0.025c21.097 0 38.199-16.567 38.199-37.005v-0.024c0-20.437-17.102-37.005-38.199-37.005h-0.025c-21.096 0-37.704 16.568-37.704 37.005z"/>
  <path d="m519.31 103.5 0.247-28.032s0.495 13.896 9.398 3.8335c0.248 2.1563-9.645 24.198-9.645 24.198z"/>
  <path d="m521.04 97.754s-15.11 20.315-5.93 23.479c0.248-0.239 3.957-8.864 8.409 0 0.741-2.048-2.479-23.479-2.479-23.479z"/>
 </g>
 <defs>
  <linearGradient id="paint0_linear_256_828" x1="595.21" x2="496.33" y1="202.13" y2="-55.89" gradientUnits="userSpaceOnUse">
   <stop stop-color="#9898FF" offset="0"/>
   <stop stop-color="#6AE1D9" offset=".90412"/>
  </linearGradient>
  <clipPath id="clip0_256_828">
   <rect width="595" height="150" fill="#fff"/>
  </clipPath>
 </defs>
</svg>
